<?xml version="1.0" encoding="UTF-8" standalone="no"?>
<!-- Created with Inkscape (http://www.inkscape.org/) -->

<svg
   width="39.158325mm"
   height="39.156429mm"
   viewBox="0 0 39.158325 39.15643"
   version="1.1"
   id="svg1"
   xml:space="preserve"
   inkscape:version="1.3.2 (091e20ef0f, 2023-11-25)"
   sodipodi:docname="journeymaker.svg"
   xmlns:inkscape="http://www.inkscape.org/namespaces/inkscape"
   xmlns:sodipodi="http://sodipodi.sourceforge.net/DTD/sodipodi-0.dtd"
   xmlns="http://www.w3.org/2000/svg"
   xmlns:svg="http://www.w3.org/2000/svg"><sodipodi:namedview
     id="namedview1"
     pagecolor="#ffffff"
     bordercolor="#000000"
     borderopacity="0.25"
     inkscape:showpageshadow="2"
     inkscape:pageopacity="0.0"
     inkscape:pagecheckerboard="true"
     inkscape:deskcolor="#d1d1d1"
     inkscape:document-units="mm"
     inkscape:zoom="0.97619563"
     inkscape:cx="-28.170583"
     inkscape:cy="247.90113"
     inkscape:window-width="1920"
     inkscape:window-height="1004"
     inkscape:window-x="0"
     inkscape:window-y="0"
     inkscape:window-maximized="1"
     inkscape:current-layer="layer1" /><defs
     id="defs1" /><g
     inkscape:label="Layer 1"
     inkscape:groupmode="layer"
     id="layer1"
     transform="translate(-99.713503,-72.559879)"><path
       style="fill:#ffffff"
       d="m 119.29272,111.71631 h -1.10414 l -1.65321,-1.5875 -1.65322,-1.5875 -3.81399,-10e-4 -3.81398,-0.001 -0.99942,-0.27754 -0.99942,-0.27754 -0.91239,-0.80109 -0.91238,-0.80108 -0.26953,-0.97042 -0.26954,-0.97042 -10e-4,-3.97703 -0.002,-3.977041 -1.5875,-1.57093 -1.587497,-1.57094 v -1.15566 -1.15566 l 1.587497,-1.65322 1.5875,-1.65321 v -3.76297 -3.76297 l 0.28986,-1.15112 0.28985,-1.15112 0.79483,-0.81296 0.79483,-0.81297 0.96584,-0.26827 0.96583,-0.26827 3.94628,-0.001 3.94628,-10e-4 1.65322,-1.5875 1.65321,-1.5875 h 1.10414 1.10413 l 1.65322,1.5875 1.65322,1.5875 3.81398,10e-4 3.81399,0.001 0.99942,0.27754 0.99942,0.27754 0.88734,0.7791 0.88735,0.7791 0.29605,1.17571 0.29604,1.17572 v 3.76297 3.76297 l 1.5875,1.65321 1.5875,1.65322 v 1.10413 1.10414 l -1.56133,1.63074 -1.56133,1.63075 -0.1009,4.365621 -0.10091,4.36563 -0.42929,0.79375 -0.42929,0.79375 -0.62045,0.56995 -0.62045,0.56995 -1.05834,0.28847 -1.05833,0.28847 -3.81399,0.001 -3.81398,10e-4 -1.65322,1.5875 -1.65322,1.5875 z m -0.041,-0.79375 h 0.78355 l 1.28237,-1.18012 1.28237,-1.18012 -3.30729,-0.004 -3.30729,-0.004 1.24136,1.18449 1.24137,1.18449 z m -8.73435,-3.18661 3.26319,0.0116 -0.10939,-0.33073 -0.10939,-0.33073 -3.55068,-0.13781 -3.55067,-0.13782 -0.70539,-0.47337 -0.70539,-0.47337 -0.20634,-0.44715 -0.20634,-0.44714 -0.14661,-3.55066 -0.1466,-3.550661 -0.33073,-0.10941 -0.33073,-0.10941 0.002,3.130901 0.001,3.1309 0.2658,0.92604 0.2658,0.92605 0.47046,0.60723 0.47046,0.60723 1.0482,0.37334 1.0482,0.37334 z m 8.77535,-0.25297 h 4.46668 l 0.16353,-0.26459 0.16352,-0.26458 h -4.79373 -4.79373 l 0.16352,0.26458 0.16352,0.26459 z m 9.27012,0 h 3.74511 l 0.73256,-0.43274 0.73257,-0.43274 0.43273,-0.73256 0.43274,-0.73257 v -3.7824 -3.782411 l -0.24133,0.25135 -0.24132,0.25136 -0.0928,3.439581 -0.0928,3.43959 -0.47708,0.7078 -0.47708,0.70781 -0.81577,0.28438 -0.81577,0.28438 h -3.11991 -3.1199 l -0.16352,0.26458 -0.16352,0.26459 z m -18.86127,-1.32682 2.4474,0.004 v -0.19462 -0.19461 l -3.23718,-3.24497 -3.23717,-3.244971 h -0.20241 -0.20241 l 0.004,2.447401 0.004,2.4474 0.33204,0.65624 0.33205,0.65624 0.65624,0.33205 0.65624,0.33204 z m 9.70123,-0.17714 5.84304,-0.14278 3.90261,-3.86968 3.9026,-3.869671 v -5.95334 -5.95333 l -4.03169,-4.03799 -4.0317,-4.038 h -5.67307 -5.67307 l -4.18586,4.15642 -4.18586,4.15642 v 5.6963 5.6963 l 4.14498,4.151061 4.14498,4.15106 z m 9.72031,-0.0835 h 2.81098 l 0.56916,-0.46302 0.56915,-0.46302 -0.0768,-2.84921 -0.0768,-2.849201 -3.30332,3.312221 -3.30332,3.31223 z m -24.72643,-8.995841 h 0.0794 v -4.79489 -4.7949 l -0.39688,0.32938 -0.39687,0.32937 v 4.14802 4.14802 l 0.3175,0.3175 0.3175,0.3175 z m 29.97729,-0.13229 0.26458,-0.16352 v -4.46669 -4.46668 l -0.26458,-0.16352 -0.26459,-0.16353 v 4.79373 4.79373 z m -31.59523,-1.45521 h 0.10981 l -0.006,-3.24114 -0.006,-3.24115 -1.18449,1.24137 -1.18449,1.24137 v 0.7719 0.7719 l 1.08082,1.22788 1.08082,1.22787 z m 34.1149,-1.10907 1.18449,-1.24137 v -0.78356 -0.78355 l -1.18012,-1.28237 -1.18012,-1.28237 -0.004,3.30729 -0.004,3.3073 z m -32.90607,-7.679 0.35619,-0.1179 0.13267,-3.55066 0.13267,-3.55066 0.33641,-0.58925 0.33642,-0.58925 0.58925,-0.33641 0.58925,-0.33641 3.55066,-0.13267 3.55066,-0.13267 0.11809,-0.3568 0.1181,-0.3568 -3.66876,0.0982 -3.66875,0.0982 -0.82061,0.44354 -0.82061,0.44353 -0.50172,0.74113 -0.50172,0.74113 -0.0922,3.80085 -0.0922,3.80084 z m 30.6,-3.55849 0.0813,-3.66073 -0.4511,-0.85506 -0.4511,-0.85505 -0.68854,-0.46728 -0.68855,-0.46727 -3.80085,-0.0922 -3.80084,-0.0922 0.11789,0.35619 0.1179,0.35619 3.55066,0.13267 3.55066,0.13267 0.61771,0.35164 0.61771,0.35165 0.37448,0.89625 0.37447,0.89624 v 3.13941 3.1394 l 0.19844,0.19909 0.19844,0.19909 z m -29.14724,2.02781 h 0.2187 l 3.24497,-3.23717 3.24497,-3.23718 v -0.22649 -0.22649 l -2.77138,0.0902 -2.77139,0.0902 -0.60205,0.60205 -0.60206,0.60206 -0.0902,2.77138 -0.0902,2.77138 z m 27.55403,-2.82253 0.0756,-2.8324 -0.54536,-0.54597 -0.54536,-0.54597 -2.77138,-0.0902 -2.77138,-0.0902 v 0.2187 0.2187 l 3.24114,3.2499 3.24115,3.2499 z m -13.73539,-4.8588 4.86104,0.008 -0.32938,-0.39688 -0.32937,-0.39687 h -4.01808 -4.01807 l -0.51359,0.38846 -0.51359,0.38846 z m 0.0337,-1.60009 h 3.30729 l -1.28237,-1.18012 -1.28237,-1.18012 h -0.74255 -0.74256 l -1.28237,1.18012 -1.28236,1.18012 z"
       id="path1" /></g></svg>
