<?xml version="1.0" encoding="UTF-8" standalone="no"?>
<svg
   id="Layer_1"
   data-name="Layer 1"
   viewBox="0 0 366.65616 421.38636"
   version="1.1"
   sodipodi:docname="voron.svg"

   inkscape:version="1.3.2 (091e20ef0f, 2023-11-25)"
   xmlns:inkscape="http://www.inkscape.org/namespaces/inkscape"
   xmlns:sodipodi="http://sodipodi.sourceforge.net/DTD/sodipodi-0.dtd"
   xmlns="http://www.w3.org/2000/svg"
   xmlns:svg="http://www.w3.org/2000/svg">
  <sodipodi:namedview
     id="namedview1"
     pagecolor="#ffffff"
     bordercolor="#000000"
     borderopacity="0.25"
     inkscape:showpageshadow="2"
     inkscape:pageopacity="0.0"
     inkscape:pagecheckerboard="0"
     inkscape:deskcolor="#d1d1d1"
     inkscape:zoom="1.8984338"
     inkscape:cx="210.43662"
     inkscape:cy="210.7"
     inkscape:window-width="1920"
     inkscape:window-height="1004"
     inkscape:window-x="0"
     inkscape:window-y="0"
     inkscape:window-maximized="1"
     inkscape:current-layer="Layer_1" />
  <defs
     id="defs1">
    <style
       id="style1">.cls-1{fill:#fe0000;}.cls-2{font-size:326px;letter-spacing:-0.07em;}.cls-2,.cls-3{font-family:Play-Regular, Play;}.cls-3{font-size:105px;letter-spacing:1.17em;}</style>
  </defs>
  <path
     class="cls-1"
     d="m 366.57934,108.30474 c 0,-2.37 -0.6,-3.7 -2.75,-4.94 q -89,-51.170001 -178,-102.54000092 a 4.37,4.37 0 0 0 -5.11,0 Q 91.829339,52.184739 2.829339,103.35474 c -2.15999997,1.24 -2.76999997,2.57 -2.75999997,4.93 q 0.12,51.26 0.05,102.49 -0.07,51.23 -0.09,102.49 a 4.58,4.58 0 0 0 2.63999997,4.68 q 89,51.19 177.940001,102.58 a 4.63,4.63 0 0 0 5.38,0 q 88.92,-51.37 178,-102.58 a 4.6,4.6 0 0 0 2.64,-4.67 q -0.14,-102.48 -0.05,-204.97 z m -312.060001,102.33 c -0.13,-1.58 0.87,-2.35 1.47,-3.26 q 35.82,-54.5 71.660001,-109.000001 a 5.19,5.19 0 0 1 5.06,-2.69 c 16.1,0.11 32.21,0.06 48.31,0.06 h 3.71 c -8.25,12.520001 -16.1,24.430001 -24,36.360001 q -25,38 -50,76.09 a 4.69,4.69 0 0 1 -4.53,2.48 c -16.310001,-0.09 -32.630001,-0.05 -48.950001,-0.05 z m 82.310001,112.63 c -0.9,1.38 -1.71,2.35 -3.66,2.34 -17.15,-0.09 -34.310001,-0.05 -51.470001,-0.06 -0.3,0 -0.61,-0.09 -1.45,-0.21 0.79,-1.24 1.38,-2.2 2,-3.14 Q 155.82934,210.37474 229.41934,98.534739 a 5.5,5.5 0 0 1 5.31,-2.8 c 17,0.11 34.1,0.06 51.15,0.06 0.41,1.17 -0.5,1.8 -1,2.53 q -73.99,112.460001 -148.05,224.940001 z m 174.09,-109.73 q -36.09,54.85 -72.17,109.7 c -0.89,1.36 -1.68,2.38 -3.64,2.37 -17.05,-0.09 -34.1,-0.05 -51.14,-0.06 -0.5,0 -1,0.14 -1.46,-0.4 0.07,-1.09 0.9,-1.83 1.45,-2.68 q 35.87,-54.48 71.64,-108.93 c 1.36,-2.06 2.7,-2.95 5.26,-2.93 16.21,0.13 32.41,0.06 48.62,0.08 0.88,0 2.12,-0.51 2.59,0.43 0.47,0.94 -0.65,1.63 -1.15,2.42 z"
     id="path1" />
</svg>
